<svg t="1704123828227" class="icon" viewBox="0 0 1024 1024" version="1.1" xmlns="http://www.w3.org/2000/svg" p-id="7168" width="200" height="200"><path d="M513.386667 663.893333c-85.866667 0-155.733333-69.866667-155.733334-155.733333s69.866667-155.733333 155.733334-155.733333 155.733333 69.866667 155.733333 155.733333-69.866667 155.733333-155.733333 155.733333z m0-247.466666c-50.56 0-91.733333 41.173333-91.733334 91.733333s41.173333 91.733333 91.733334 91.733333 91.733333-41.173333 91.733333-91.733333-41.173333-91.733333-91.733333-91.733333z" p-id="7169"></path><path d="M388.693333 942.933333l-16.213333-5.226666c-61.653333-20.16-119.573333-54.72-167.573333-100.053334l-12.053334-11.306666 2.24-16.426667c5.333333-38.72-1.813333-76.586667-20.586666-109.226667C156.16 668.906667 128 644.266667 93.013333 629.333333l-15.253333-6.4-3.52-16.213333c-6.826667-32-10.346667-63.786667-10.346667-94.72 0-34.24 4.053333-68.8 12.053334-102.826667l3.733333-15.786666 14.933333-6.4c35.306667-14.826667 63.786667-39.68 82.24-71.68 18.24-31.466667 25.6-67.84 21.333334-105.173334l-1.813334-16.106666 11.946667-10.986667c49.173333-45.44 108.373333-79.68 171.2-99.093333l15.68-4.906667 13.12 9.92c61.333333 46.72 145.813333 46.72 207.146667 0l13.12-9.92 15.68 4.906667c63.04 19.413333 120.106667 52.266667 169.6 97.6l12.48 11.413333-2.346667 16.64c-5.546667 39.04 1.493333 77.013333 20.48 109.973333 18.986667 32.96 48.533333 58.133333 85.226667 72.853334l15.68 6.293333 3.626666 16.533333c7.146667 32.426667 10.773333 64.96 10.773334 96.746667 0 17.706667-14.293333 32-32 32s-32-14.293333-32-32c0-22.08-2.026667-44.586667-6.186667-67.306667-42.666667-20.693333-77.333333-52.586667-100.693333-93.013333-23.36-40.426667-33.706667-86.186667-30.293334-133.333333-35.626667-30.08-75.413333-52.906667-118.613333-68.266667-77.333333 50.88-179.2 50.88-256.426667 0-43.626667 15.466667-84.8 39.36-120.533333 69.973333 2.026667 45.013333-8.533333 88.746667-30.826667 127.36-22.72 39.36-56.106667 70.72-97.28 91.52-4.8 24.426667-7.146667 48.96-7.146666 73.173334 0 21.44 2.026667 43.52 5.866666 65.92 40.533333 20.8 73.493333 51.946667 96 90.88 23.146667 40.213333 33.493333 85.76 30.293334 132.693333 34.986667 30.613333 74.24 53.973333 117.013333 70.08 39.04-26.133333 83.52-39.893333 129.813333-39.893333 17.706667 0 32 14.293333 32 32s-14.293333 32-32 32c-37.76 0-74.026667 12.8-104.96 36.8l-13.12 10.346666z" p-id="7170"></path><path d="M928 704H672c-17.706667 0-32-14.293333-32-32s14.293333-32 32-32h256c17.706667 0 32 14.293333 32 32s-14.293333 32-32 32zM928 832H672c-17.706667 0-32-14.293333-32-32s14.293333-32 32-32h256c17.706667 0 32 14.293333 32 32s-14.293333 32-32 32z" p-id="7171"></path><path d="M928 960H672c-17.706667 0-32-14.293333-32-32s14.293333-32 32-32h256c17.706667 0 32 14.293333 32 32s-14.293333 32-32 32z" p-id="7172"></path></svg>