<svg t="1704124175350" class="icon" viewBox="0 0 1024 1024" version="1.1" xmlns="http://www.w3.org/2000/svg" p-id="9812" width="200" height="200"><path d="M794.325333 544.085333c67.712 0.170667 122.581333 56.064 123.008 125.184v122.453334c-0.426667 69.205333-55.253333 125.184-123.008 125.610666h-120.021333c-67.669333-0.426667-122.410667-56.448-122.624-125.568v-122.496c0-69.12 54.912-125.184 122.624-125.184z m-515.370666 0a32.853333 32.853333 0 0 1 31.573333 15.658667 34.389333 34.389333 0 0 1 0 35.84 32.853333 32.853333 0 0 1-31.573333 15.701333H229.674667c-31.445333 0-56.96 25.898667-57.173334 57.984v120.96a58.88 58.88 0 0 0 57.173334 57.984h120.746666c15.146667 0.085333 29.696-5.973333 40.405334-16.853333 10.752-10.88 16.768-25.685333 16.768-41.130667v-181.632l-0.512-4.522666a34.005333 34.005333 0 0 1 15.36-30.165334 32.554667 32.554667 0 0 1 37.034666 1.109334 34.133333 34.133333 0 0 1 12.8 35.498666v180.864c0 69.333333-55.04 125.568-122.965333 125.568H229.674667c-67.328-1.408-121.6-56.832-123.008-125.568v-122.112c0-33.28 12.970667-65.194667 36.053333-88.661333a121.386667 121.386667 0 0 1 86.954667-36.522667z m515.370666 67.2h-120.021333c-31.36 0-56.746667 25.941333-56.746667 57.984v122.453334c-0.128 15.445333 5.802667 30.293333 16.469334 41.173333s25.173333 16.938667 40.277333 16.853333h120.021333c15.104 0.085333 29.610667-5.973333 40.277334-16.853333 10.666667-10.922667 16.64-25.728 16.512-41.130667v-122.496c0-15.36-5.973333-30.122667-16.64-41.002666a56.234667 56.234667 0 0 0-40.149334-16.981334z m0-504.618666c67.2 1.621333 121.258667 56.96 122.624 125.568v122.112a126.592 126.592 0 0 1-34.858666 89.002666 121.429333 121.429333 0 0 1-86.272 37.717334h-49.664a33.536 33.536 0 0 1-29.568-33.578667c0-17.28 12.8-31.786667 29.568-33.621333h48.170666c15.232-0.085333 29.781333-6.4 40.448-17.493334s16.554667-26.069333 16.341334-41.642666v-122.453334c-0.426667-31.872-25.6-57.6-56.789334-58.026666h-120.021333c-31.36 0-56.746667 25.984-56.746667 58.026666v183.125334l-0.469333 4.565333a33.706667 33.706667 0 0 1-33.408 28.458667 32.426667 32.426667 0 0 1-23.04-10.453334 33.792 33.792 0 0 1-8.96-24.106666V232.234667c-0.085333-33.28 12.8-65.194667 35.797333-88.746667a121.386667 121.386667 0 0 1 86.826667-36.821333z m-444.629333 0c67.84 0.213333 122.794667 56.32 123.008 125.568v122.496c0 33.28-12.970667 65.194667-36.053333 88.661333-23.082667 23.466667-54.4 36.650667-86.954667 36.522667H229.674667C161.962667 479.744 107.093333 423.850667 106.666667 354.730667v-122.453334C107.093333 163.029333 161.92 107.093333 229.674667 106.666667z m0 67.584H229.674667a56.192 56.192 0 0 0-40.874667 16.554666c-10.922667 10.922667-17.066667 25.856-17.066667 41.429334v122.496c-0.298667 15.786667 5.717333 31.018667 16.64 42.197333 10.922667 11.136 25.856 17.28 41.301334 16.938667h120.021333c15.232-0.085333 29.781333-6.4 40.448-17.493334s16.554667-26.069333 16.341333-41.642666v-122.453334c-0.213333-32-25.514667-57.813333-56.789333-58.026666z" fill="#000000" p-id="9813"></path></svg>