<svg t="1704124250703" class="icon" viewBox="0 0 1024 1024" version="1.1" xmlns="http://www.w3.org/2000/svg" p-id="11616" width="200" height="200"><path d="M323.008 786.752c-52.928 0-96-43.072-96-96s43.072-96 96-96 96 43.072 96 96-43.072 96-96 96z m0-128a32.032 32.032 0 0 0 0 64 32.032 32.032 0 0 0 0-64z" p-id="11617"></path><path d="M416.096 927.04H284.224c-159.936 0-186.912-59.232-186.912-192v-140.8c0-74.24 14.304-96.224 70.72-150.944l327.04-319.904c36.576-35.488 105.888-35.392 142.304-0.096l263.072 256.032c18.336 17.792 28.864 43.552 28.864 70.656 0 27.296-10.656 53.28-29.248 71.264l-289.952 294.464c-65.504 64.608-112.864 111.328-194.016 111.328z m150.144-767.552c-10.496 0-20.16 3.52-26.528 9.696l-327.04 319.936C162.72 537.6 161.312 543.648 161.312 594.24v140.8c0 110.272 8.352 128 122.912 128h131.872c52.672 0 83.776-28.48 149.088-92.896l26.56-26.048 263.232-268.224a35.52 35.52 0 0 0 10.336-25.888c0-9.888-3.424-18.88-9.472-24.736l-263.072-256.032c-6.336-6.176-16.032-9.728-26.528-9.728z" p-id="11618"></path></svg>